# xmcd CD database file
#
# Track frame offsets:
#	150
#	26627
#	45225
#	58205
#	77040
#	101865
#	122550
#	137440
#	154507
#	181520
#	200734
#
# Disc length: 2808 seconds
#
# Revision: 0
# Processed by: cddbd v1.5.2PL0 Copyright (c) Steve Scherf et al.
# Submitted via: CDex 1.70beta2
#
DISCID=880af60b
DTITLE=Paul Carrol Binkley - Flying Colors
DYEAR=1995
DGENRE=New Age
TTITLE0=Vast Land Mass Expanse
TTITLE1=El Picaro de Granada
TTITLE2=The Public Dog
TTITLE3=The Distance Between Them
TTITLE4=This Train
TTITLE5=Cajun Reel
TTITLE6=What'll I Do
TTITLE7=Tom Dooley Escapes
TTITLE8=Flying Colors
TTITLE9=Remembrance
TTITLE10=Lullaby
EXTD=YEAR: 1995
EXTT0=
EXTT1=
EXTT2=
EXTT3=
EXTT4=
EXTT5=
EXTT6=
EXTT7=
EXTT8=
EXTT9=
EXTT10=
PLAYORDER=
